Amstlevar-Italic-opsz144-wght900-wdth100.ufo
<glyph name="semicolon" format="2">
  <advance width="619"/>
  <unicode hex="003B"/>
  <outline>
    <contour>
      <point x="88.0" y="753.0" type="qcurve" smooth="yes"/>
      <point x="88.0" y="835.0"/>
      <point x="207.0" y="954.0"/>
      <point x="300.0" y="954.0" type="qcurve" smooth="yes"/>
      <point x="392.0" y="954.0"/>
      <point x="513.0" y="835.0"/>
      <point x="513.0" y="753.0" type="qcurve" smooth="yes"/>
      <point x="513.0" y="672.0"/>
      <point x="392.0" y="552.0"/>
      <point x="300.0" y="552.0" type="qcurve" smooth="yes"/>
      <point x="207.0" y="552.0"/>
      <point x="88.0" y="672.0"/>
    </contour>
    <contour>
      <point x="-1.0" y="-274.0" type="line"/>
      <point x="87.0" y="-201.0"/>
      <point x="209.0" y="-67.0"/>
      <point x="240.0" y="-8.0" type="qcurve"/>
      <point x="123.0" y="-10.0"/>
      <point x="-6.0" y="98.0"/>
      <point x="-6.0" y="192.0" type="qcurve" smooth="yes"/>
      <point x="-6.0" y="270.0"/>
      <point x="111.0" y="389.0"/>
      <point x="200.0" y="389.0" type="qcurve" smooth="yes"/>
      <point x="292.0" y="389.0"/>
      <point x="418.0" y="279.0"/>
      <point x="418.0" y="153.0" type="qcurve" smooth="yes"/>
      <point x="418.0" y="12.0"/>
      <point x="212.0" y="-231.0"/>
      <point x="33.0" y="-323.0" type="qcurve"/>
    </contour>
  </outline>
</glyph>
<glyph name="A" format="2">
  <advance width="1386"/>
  <unicode hex="0041"/>
  <outline>
    <contour>
      <point x="-212.0" y="0.0" type="line"/>
      <point x="-201.0" y="54.0" type="line"/>
      <point x="-45.0" y="76.0" type="line"/>
      <point x="659.0" y="1500.0" type="line"/>
      <point x="1060.0" y="1500.0" type="line"/>
      <point x="1205.0" y="70.0" type="line"/>
      <point x="1302.0" y="55.0" type="line"/>
      <point x="1302.0" y="0.0" type="line"/>
      <point x="592.0" y="0.0" type="line"/>
      <point x="601.0" y="55.0" type="line"/>
      <point x="722.0" y="73.0" type="line"/>
      <point x="613.0" y="1245.0" type="line"/>
      <point x="597.0" y="1245.0" type="line"/>
      <point x="23.0" y="72.0" type="line"/>
      <point x="189.0" y="54.0" type="line"/>
      <point x="187.0" y="0.0" type="line"/>
    </contour>
    <contour>
      <point x="218.0" y="532.0" type="line"/>
      <point x="248.0" y="586.0" type="line"/>
      <point x="476.0" y="579.0" type="line"/>
      <point x="469.0" y="532.0" type="line"/>
    </contour>
    <contour>
      <point x="477.0" y="579.0" type="line"/>
      <point x="756.0" y="587.0" type="line"/>
      <point x="760.0" y="532.0" type="line"/>
      <point x="469.0" y="532.0" type="line"/>
    </contour>
  </outline>
</glyph>
<glyph name="B" format="2">
  <advance width="1419"/>
  <unicode hex="0042"/>
  <outline>
    <contour>
      <point x="-112" y="0" type="line"/>
      <point x="-103" y="55" type="line"/>
      <point x="-3" y="69" type="line"/>
      <point x="157" y="797" type="line"/>
      <point x="293" y="1432" type="line"/>
      <point x="173" y="1442" type="line"/>
      <point x="182" y="1500" type="line"/>
      <point x="1001" y="1500" type="line" smooth="yes"/>
      <point x="1221" y="1500"/>
      <point x="1420" y="1318"/>
      <point x="1400" y="1153" type="qcurve" smooth="yes"/>
      <point x="1380" y="998"/>
      <point x="1194" y="848"/>
      <point x="1057" y="828" type="qcurve"/>
      <point x="1055" y="821" type="line"/>
      <point x="1217" y="787"/>
      <point x="1357" y="579"/>
      <point x="1327" y="414" type="qcurve" smooth="yes"/>
      <point x="1292" y="224"/>
      <point x="1013" y="0"/>
      <point x="762" y="0" type="qcurve" smooth="yes"/>
    </contour>
    <contour>
      <point x="502" y="79" type="line"/>
      <point x="531" y="58" type="line"/>
      <point x="599" y="58" type="line" smooth="yes"/>
      <point x="718" y="58"/>
      <point x="837" y="234"/>
      <point x="875" y="426" type="qcurve" smooth="yes"/>
      <point x="911" y="609"/>
      <point x="843" y="787"/>
      <point x="740" y="788" type="qcurve" smooth="yes"/>
      <point x="665" y="788" type="line"/>
      <point x="652" y="777" type="line"/>
    </contour>
    <contour>
      <point x="666" y="850" type="line"/>
      <point x="672" y="838" type="line"/>
      <point x="763" y="838" type="line" smooth="yes"/>
      <point x="855" y="838"/>
      <point x="945" y="969"/>
      <point x="976" y="1145" type="qcurve" smooth="yes"/>
      <point x="1006" y="1315"/>
      <point x="953" y="1446"/>
      <point x="869" y="1446" type="qcurve" smooth="yes"/>
      <point x="803" y="1446" type="line"/>
      <point x="795" y="1437" type="line"/>
    </contour>
  </outline>
</glyph>
<glyph name="C" format="2">
  <advance width="1363"/>
  <unicode hex="0043"/>
  <outline>
    <contour>
      <point x="63" y="832" type="qcurve" smooth="yes"/>
      <point x="149" y="1180"/>
      <point x="700" y="1570"/>
      <point x="1049" y="1522" type="qcurve" smooth="yes"/>
      <point x="1161" y="1507"/>
      <point x="1288" y="1420"/>
      <point x="1321" y="1374" type="qcurve"/>
      <point x="1381" y="1486" type="line"/>
      <point x="1460" y="1486" type="line"/>
      <point x="1364" y="1022" type="line"/>
      <point x="1283" y="1022" type="line"/>
      <point x="1277" y="1182" type="line" smooth="yes"/>
      <point x="1272" y="1304"/>
      <point x="1169" y="1435"/>
      <point x="1064" y="1450" type="qcurve" smooth="yes"/>
      <point x="892" y="1474"/>
      <point x="684" y="1174"/>
      <point x="588" y="787" type="qcurve" smooth="yes"/>
      <point x="494" y="407"/>
      <point x="543" y="119"/>
      <point x="694" y="81" type="qcurve" smooth="yes"/>
      <point x="849" y="42"/>
      <point x="1161" y="199"/>
      <point x="1251" y="344" type="qcurve"/>
      <point x="1284" y="327" type="line"/>
      <point x="1289" y="293" type="line"/>
      <point x="1178" y="116"/>
      <point x="767" y="-64"/>
      <point x="503" y="-5" type="qcurve" smooth="yes"/>
      <point x="235" y="55"/>
      <point x="-19" y="500"/>
    </contour>
  </outline>
</glyph>
<glyph name="D" format="2">
  <advance width="1612"/>
  <unicode hex="0044"/>
  <outline>
    <contour>
      <point x="-102.0" y="0.0" type="line"/>
      <point x="-93.0" y="55.0" type="line"/>
      <point x="7.0" y="89.0" type="line"/>
      <point x="171.0" y="811.0" type="line"/>
      <point x="303.0" y="1432.0" type="line"/>
      <point x="193.0" y="1442.0" type="line"/>
      <point x="202.0" y="1500.0" type="line"/>
      <point x="977.0" y="1500.0" type="line" smooth="yes"/>
      <point x="1278.0" y="1500.0"/>
      <point x="1581.0" y="1119.0"/>
      <point x="1531.0" y="738.0" type="qcurve" smooth="yes"/>
      <point x="1482.0" y="369.0"/>
      <point x="995.0" y="0.0"/>
      <point x="680.0" y="0.0" type="qcurve" smooth="yes"/>
    </contour>
    <contour>
      <point x="515.0" y="88.0" type="line"/>
      <point x="532.0" y="74.0"/>
      <point x="585.0" y="62.0"/>
      <point x="653.0" y="62.0" type="qcurve" smooth="yes"/>
      <point x="804.0" y="62.0"/>
      <point x="964.0" y="390.0"/>
      <point x="1015.0" y="769.0" type="qcurve" smooth="yes"/>
      <point x="1057.0" y="1097.0"/>
      <point x="1029.0" y="1454.0"/>
      <point x="884.0" y="1454.0" type="qcurve" smooth="yes"/>
      <point x="863.0" y="1454.0"/>
      <point x="832.0" y="1449.0"/>
      <point x="809.0" y="1442.0" type="qcurve"/>
      <point x="662.0" y="759.0" type="line"/>
    </contour>
  </outline>
</glyph>
<glyph name="E" format="2">
  <advance width="1289"/>
  <unicode hex="0045"/>
  <outline>
    <contour>
      <point x="-92" y="0" type="line"/>
      <point x="-83" y="55" type="line"/>
      <point x="18" y="66" type="line"/>
      <point x="178" y="796" type="line"/>
      <point x="310" y="1432" type="line"/>
      <point x="194" y="1445" type="line"/>
      <point x="202" y="1500" type="line"/>
      <point x="1362" y="1500" type="line"/>
      <point x="1279" y="1137" type="line"/>
      <point x="1199" y="1137" type="line"/>
      <point x="1181" y="1440" type="line"/>
      <point x="848" y="1440" type="line"/>
      <point x="816" y="1418" type="line"/>
      <point x="673" y="773" type="line"/>
      <point x="531" y="96" type="line"/>
      <point x="571" y="58" type="line"/>
      <point x="936" y="58" type="line"/>
      <point x="1152" y="393" type="line"/>
      <point x="1224" y="393" type="line"/>
      <point x="1083" y="0" type="line"/>
    </contour>
    <contour>
      <point x="410" y="752" type="line"/>
      <point x="423" y="801" type="line"/>
      <point x="988" y="815" type="line"/>
      <point x="1082" y="986" type="line"/>
      <point x="1138" y="986" type="line"/>
      <point x="1061" y="557" type="line"/>
      <point x="1001" y="557" type="line"/>
      <point x="971" y="756" type="line"/>
    </contour>
  </outline>
</glyph>
<glyph name="F" format="2">
  <advance width="1152"/>
  <unicode hex="0046"/>
  <outline>
    <contour>
      <point x="-112" y="0" type="line"/>
      <point x="-103" y="55" type="line"/>
      <point x="-4" y="70" type="line"/>
      <point x="158" y="803" type="line"/>
      <point x="289" y="1431" type="line"/>
      <point x="172" y="1442" type="line"/>
      <point x="181" y="1500" type="line"/>
      <point x="1233" y="1500" type="line"/>
      <point x="1185" y="1137" type="line"/>
      <point x="1116" y="1137" type="line"/>
      <point x="1080" y="1440" type="line"/>
      <point x="799" y="1440" type="line"/>
      <point x="774" y="1425" type="line"/>
      <point x="633" y="767" type="line"/>
      <point x="503" y="73" type="line"/>
      <point x="649" y="55" type="line"/>
      <point x="638" y="0" type="line"/>
    </contour>
    <contour>
      <point x="399" y="737" type="line"/>
      <point x="402" y="773" type="line"/>
      <point x="913" y="785" type="line"/>
      <point x="1005" y="960" type="line"/>
      <point x="1070" y="960" type="line"/>
      <point x="982" y="520" type="line"/>
      <point x="918" y="520" type="line"/>
      <point x="898" y="721" type="line"/>
    </contour>
  </outline>
</glyph>
<glyph name="G" format="2">
  <advance width="1502"/>
  <unicode hex="0047"/>
  <outline>
    <contour>
      <point x="67" y="849" type="qcurve" smooth="yes"/>
      <point x="149" y="1180"/>
      <point x="713" y="1563"/>
      <point x="1048" y="1519" type="qcurve" smooth="yes"/>
      <point x="1156" y="1505"/>
      <point x="1279" y="1427"/>
      <point x="1307.0" y="1388.0" type="qcurve"/>
      <point x="1366.0" y="1486.0" type="line"/>
      <point x="1444.0" y="1486.0" type="line"/>
      <point x="1339.0" y="1022.0" type="line"/>
      <point x="1262.0" y="1022.0" type="line"/>
      <point x="1250" y="1195" type="line" smooth="yes"/>
      <point x="1243" y="1300"/>
      <point x="1165" y="1437"/>
      <point x="1060.0" y="1452.0" type="qcurve" smooth="yes"/>
      <point x="891" y="1476"/>
      <point x="684" y="1217"/>
      <point x="573" y="798" type="qcurve" smooth="yes"/>
      <point x="461" y="375"/>
      <point x="542" y="79"/>
      <point x="681" y="51" type="qcurve" smooth="yes"/>
      <point x="735" y="40"/>
      <point x="797.0" y="37.0"/>
      <point x="825.0" y="45.0" type="qcurve"/>
      <point x="920.0" y="607.0" type="line"/>
      <point x="824.0" y="622.0" type="line"/>
      <point x="834.0" y="677.0" type="line"/>
      <point x="1461.0" y="677.0" type="line"/>
      <point x="1451.0" y="622.0" type="line"/>
      <point x="1352.0" y="607.0" type="line"/>
      <point x="1280.0" y="182.0" type="line"/>
      <point x="1265.0" y="168.0" type="line"/>
      <point x="1143.0" y="70.0"/>
      <point x="742" y="-60"/>
      <point x="498" y="0" type="qcurve" smooth="yes"/>
      <point x="232" y="65"/>
      <point x="-13" y="528"/>
    </contour>
  </outline>
</glyph>
<glyph name="H" format="2">
  <advance width="1692"/>
  <unicode hex="0048"/>
  <outline>
    <contour>
      <point x="-92.0" y="0.0" type="line"/>
      <point x="-83.0" y="55.0" type="line"/>
      <point x="17.0" y="70.0" type="line"/>
      <point x="177.0" y="794.0" type="line"/>
      <point x="311.0" y="1432.0" type="line"/>
      <point x="192.0" y="1443.0" type="line"/>
      <point x="202.0" y="1500.0" type="line"/>
      <point x="948.0" y="1500.0" type="line"/>
      <point x="938.0" y="1443.0" type="line"/>
      <point x="817.0" y="1432.0" type="line"/>
      <point x="672.0" y="768.0" type="line"/>
      <point x="523.0" y="70.0" type="line"/>
      <point x="643.0" y="55.0" type="line"/>
      <point x="634.0" y="0.0" type="line"/>
    </contour>
    <contour>
      <point x="421.0" y="727.0" type="line"/>
      <point x="428.0" y="791.0" type="line"/>
      <point x="842.0" y="789.0" type="line"/>
      <point x="1217.0" y="791.0" type="line"/>
      <point x="1210.0" y="727.0" type="line"/>
      <point x="836.0" y="727.0" type="line"/>
    </contour>
    <contour>
      <point x="757.0" y="0.0" type="line"/>
      <point x="766.0" y="55.0" type="line"/>
      <point x="873.0" y="70.0" type="line"/>
      <point x="1029.0" y="764.0" type="line"/>
      <point x="1167.0" y="1432.0" type="line"/>
      <point x="1061.0" y="1443.0" type="line"/>
      <point x="1071.0" y="1500.0" type="line"/>
      <point x="1802.0" y="1500.0" type="line"/>
      <point x="1792.0" y="1443.0" type="line"/>
      <point x="1671.0" y="1432.0" type="line"/>
      <point x="1524.0" y="748.0" type="line"/>
      <point x="1377.0" y="70.0" type="line"/>
      <point x="1497.0" y="55.0" type="line"/>
      <point x="1488.0" y="0.0" type="line"/>
    </contour>
  </outline>
</glyph>
<glyph name="I" format="2">
  <advance width="863"/>
  <unicode hex="0049"/>
  <outline>
    <contour>
      <point x="-92" y="0" type="line"/>
      <point x="-83" y="53" type="line"/>
      <point x="28" y="70" type="line"/>
      <point x="192" y="806" type="line"/>
      <point x="321" y="1431" type="line"/>
      <point x="191" y="1442" type="line"/>
      <point x="200" y="1500" type="line"/>
      <point x="973" y="1500" type="line"/>
      <point x="964" y="1442" type="line"/>
      <point x="832" y="1431" type="line"/>
      <point x="694" y="790" type="line"/>
      <point x="537" y="70" type="line"/>
      <point x="669" y="53" type="line"/>
      <point x="660" y="0" type="line"/>
    </contour>
  </outline>
</glyph>
<glyph name="J" format="2">
  <advance width="851"/>
  <unicode hex="004A"/>
  <outline>
    <contour>
      <point x="-183" y="0" type="qcurve"/>
      <point x="-168" y="52" type="line"/>
      <point x="-151" y="49"/>
      <point x="-111" y="42"/>
      <point x="-77" y="42" type="qcurve" smooth="yes"/>
      <point x="-1" y="42"/>
      <point x="70" y="151"/>
      <point x="98" y="285" type="qcurve" smooth="yes"/>
      <point x="196" y="762" type="line"/>
      <point x="332" y="1432" type="line"/>
      <point x="201" y="1442" type="line"/>
      <point x="210" y="1500" type="line"/>
      <point x="971" y="1500" type="line"/>
      <point x="962" y="1442" type="line"/>
      <point x="843" y="1432" type="line"/>
      <point x="697" y="754" type="line"/>
      <point x="614" y="339" type="line" smooth="yes"/>
      <point x="579" y="166"/>
      <point x="296" y="-29"/>
      <point x="45" y="-29" type="qcurve" smooth="yes"/>
      <point x="-26" y="-29"/>
      <point x="-155" y="-8"/>
    </contour>
  </outline>
</glyph>
<glyph name="O" format="2">
  <advance width="1602"/>
  <unicode hex="004F"/>
  <outline>
    <contour>
      <point x="71.0" y="839.0" type="qcurve" smooth="yes"/>
      <point x="168.0" y="1236.0"/>
      <point x="700.0" y="1566.0"/>
      <point x="1047.0" y="1521.0" type="qcurve" smooth="yes"/>
      <point x="1317.0" y="1490.0"/>
      <point x="1626.0" y="1064.0"/>
      <point x="1526.0" y="663.0" type="qcurve" smooth="yes"/>
      <point x="1436.0" y="304.0"/>
      <point x="899.0" y="-80.0"/>
      <point x="558.0" y="-32.0" type="qcurve" smooth="yes"/>
      <point x="246.0" y="10.0"/>
      <point x="-25.0" y="442.0"/>
    </contour>
    <contour>
      <point x="589.0" y="772.0" type="qcurve" smooth="yes"/>
      <point x="499.0" y="389.0"/>
      <point x="473.0" y="57.0"/>
      <point x="578.0" y="35.0" type="qcurve" smooth="yes"/>
      <point x="687.0" y="12.0"/>
      <point x="926.0" y="375.0"/>
      <point x="1021.0" y="767.0" type="qcurve" smooth="yes"/>
      <point x="1119.0" y="1181.0"/>
      <point x="1090.0" y="1446.0"/>
      <point x="1011.0" y="1456.0" type="qcurve" smooth="yes"/>
      <point x="903.0" y="1471.0"/>
      <point x="684.0" y="1167.0"/>
    </contour>
  </outline>
</glyph>
<glyph name="P" format="2">
  <advance width="1463"/>
  <unicode hex="0050"/>
  <outline>
    <contour>
      <point x="-111" y="0" type="line"/>
      <point x="-102" y="55" type="line"/>
      <point x="-2" y="73" type="line"/>
      <point x="158" y="806" type="line"/>
      <point x="293" y="1431" type="line"/>
      <point x="173" y="1442" type="line"/>
      <point x="182" y="1500" type="line"/>
      <point x="1027" y="1500" type="line" smooth="yes"/>
      <point x="1259" y="1500"/>
      <point x="1521" y="1290"/>
      <point x="1497" y="1081" type="qcurve" smooth="yes"/>
      <point x="1474" y="879"/>
      <point x="1170" y="623"/>
      <point x="846" y="623" type="qcurve" smooth="yes"/>
      <point x="785" y="623"/>
      <point x="625" y="661"/>
      <point x="593" y="687" type="qcurve"/>
      <point x="609" y="721" type="line"/>
      <point x="642" y="707"/>
      <point x="714" y="686"/>
      <point x="766" y="686" type="qcurve" smooth="yes"/>
      <point x="861" y="686"/>
      <point x="982" y="823"/>
      <point x="1026" y="1076" type="qcurve" smooth="yes"/>
      <point x="1064" y="1293"/>
      <point x="955" y="1439"/>
      <point x="846" y="1439" type="qcurve" smooth="yes"/>
      <point x="816" y="1439" type="line"/>
      <point x="792" y="1418" type="line"/>
      <point x="652" y="759" type="line"/>
      <point x="504" y="72" type="line"/>
      <point x="622" y="55" type="line"/>
      <point x="611" y="0" type="line"/>
    </contour>
  </outline>
</glyph>
<glyph name="S" format="2">
  <advance width="1095"/>
  <unicode hex="0053"/>
  <outline>
    <contour>
      <point x="-157.0" y="9.0" type="line"/>
      <point x="-58.0" y="446.0" type="line"/>
      <point x="31.0" y="446.0" type="line"/>
      <point x="58.0" y="293.0" type="line" smooth="yes"/>
      <point x="83.0" y="167.0"/>
      <point x="266.0" y="37.0"/>
      <point x="364.0" y="37.0" type="qcurve" smooth="yes"/>
      <point x="473.0" y="37.0"/>
      <point x="590.0" y="122.0"/>
      <point x="618.0" y="218.0" type="qcurve" smooth="yes"/>
      <point x="652.0" y="350.0"/>
      <point x="450.0" y="550.0"/>
      <point x="306.0" y="651.0" type="qcurve" smooth="yes"/>
      <point x="167.0" y="745.0"/>
      <point x="60.0" y="1010.0"/>
      <point x="109.0" y="1173.0" type="qcurve" smooth="yes"/>
      <point x="158.0" y="1351.0"/>
      <point x="419.0" y="1524.0"/>
      <point x="695.0" y="1524.0" type="qcurve" smooth="yes"/>
      <point x="795.0" y="1524.0"/>
      <point x="956.0" y="1482.0"/>
      <point x="1009.0" y="1441.0" type="qcurve"/>
      <point x="1059.0" y="1500.0" type="line"/>
      <point x="1132.0" y="1489.0" type="line"/>
      <point x="1039.0" y="1085.0" type="line"/>
      <point x="951.0" y="1085.0" type="line"/>
      <point x="925.0" y="1238.0" type="line"/>
      <point x="907.0" y="1347.0"/>
      <point x="809.0" y="1450.0"/>
      <point x="707.0" y="1450.0" type="qcurve" smooth="yes"/>
      <point x="608.0" y="1450.0"/>
      <point x="506.0" y="1393.0"/>
      <point x="481.0" y="1306.0" type="qcurve" smooth="yes"/>
      <point x="453.0" y="1199.0"/>
      <point x="583.0" y="1030.0"/>
      <point x="743.0" y="929.0" type="qcurve" smooth="yes"/>
      <point x="942.0" y="805.0"/>
      <point x="1058.0" y="528.0"/>
      <point x="1015.0" y="355.0" type="qcurve" smooth="yes"/>
      <point x="972.0" y="189.0"/>
      <point x="677.0" y="-27.0"/>
      <point x="373.0" y="-27.0" type="qcurve" smooth="yes"/>
      <point x="245.0" y="-27.0"/>
      <point x="62.0" y="40.0"/>
      <point x="19.0" y="92.0" type="qcurve"/>
      <point x="-76.0" y="-10.0" type="line"/>
    </contour>
  </outline>
</glyph>
<glyph name="T" format="2">
  <advance width="1324"/>
  <unicode hex="0054"/>
  <outline>
    <contour>
      <point x="103" y="1145" type="line"/>
      <point x="172" y="1500" type="line"/>
      <point x="1468" y="1500" type="line"/>
      <point x="1399" y="1145" type="line"/>
      <point x="1323" y="1145" type="line"/>
      <point x="1292" y="1446" type="line"/>
      <point x="1093" y="1446" type="line"/>
      <point x="1066" y="1434" type="line"/>
      <point x="919" y="754" type="line"/>
      <point x="780" y="68" type="line"/>
      <point x="927" y="55" type="line"/>
      <point x="917" y="0" type="line"/>
      <point x="109" y="0" type="line"/>
      <point x="129" y="55" type="line"/>
      <point x="272" y="68" type="line"/>
      <point x="416" y="754" type="line"/>
      <point x="564" y="1434" type="line"/>
      <point x="547" y="1446" type="line"/>
      <point x="337" y="1446" type="line"/>
      <point x="185" y="1145" type="line"/>
    </contour>
  </outline>
</glyph>
<glyph name="X" format="2">
  <advance width="1447"/>
  <unicode hex="0058"/>
  <outline>
    <contour>
      <point x="-190.0" y="0.0" type="line"/>
      <point x="-176.0" y="55.0" type="line"/>
      <point x="-11.0" y="86.0" type="line"/>
      <point x="695.0" y="834.0" type="line"/>
      <point x="789.0" y="834.0" type="line"/>
      <point x="1314.0" y="1409.0" type="line"/>
      <point x="1160.0" y="1442.0" type="line"/>
      <point x="1174.0" y="1500.0" type="line"/>
      <point x="1605.0" y="1500.0" type="line"/>
      <point x="1591.0" y="1442.0" type="line"/>
      <point x="1422.0" y="1413.0" type="line"/>
      <point x="830.0" y="760.0" type="line"/>
      <point x="732.0" y="760.0" type="line"/>
      <point x="102.0" y="89.0" type="line"/>
      <point x="275.0" y="55.0" type="line"/>
      <point x="261.0" y="0.0" type="line"/>
    </contour>
    <contour>
      <point x="189.0" y="1441.0" type="line"/>
      <point x="203.0" y="1500.0" type="line"/>
      <point x="948.0" y="1500.0" type="line"/>
      <point x="934.0" y="1441.0" type="line"/>
      <point x="809.0" y="1420.0" type="line"/>
      <point x="987.0" y="868.0" type="line"/>
      <point x="1251.0" y="79.0" type="line"/>
      <point x="1348.0" y="55.0" type="line"/>
      <point x="1334.0" y="0.0" type="line"/>
      <point x="575.0" y="0.0" type="line"/>
      <point x="589.0" y="55.0" type="line"/>
      <point x="718.0" y="79.0" type="line"/>
      <point x="529.0" y="739.0" type="line"/>
      <point x="286.0" y="1418.0" type="line"/>
    </contour>
  </outline>
</glyph>
<glyph name="l" format="2">
  <advance width="762"/>
  <unicode hex="006C"/>
  <outline>
    <contour>
      <point x="34.0" y="-16.0" type="line"/>
      <point x="1.0" y="53.0" type="line"/>
      <point x="124.0" y="604.0" type="line"/>
      <point x="266.0" y="1407.0" type="line"/>
      <point x="112.0" y="1411.0" type="line"/>
      <point x="133.0" y="1492.0" type="line"/>
      <point x="710.0" y="1578.0" type="line"/>
      <point x="742.0" y="1514.0" type="line"/>
      <point x="561.0" y="588.0" type="line"/>
      <point x="472.0" y="136.0" type="line"/>
      <point x="679.0" y="143.0" type="line"/>
      <point x="670.0" y="86.0" type="line"/>
    </contour>
  </outline>
</glyph>
<glyph name="asciitilde" format="2">
  <advance width="977"/>
  <unicode hex="007E"/>
  <outline>
    <contour>
      <point x="114.0" y="602.0" type="line"/>
      <point x="165.0" y="690.0"/>
      <point x="305.0" y="851.0"/>
      <point x="379.0" y="860.0" type="qcurve"/>
      <point x="661.0" y="746.0" type="line"/>
      <point x="713.0" y="746.0"/>
      <point x="793.0" y="796.0"/>
      <point x="835.0" y="865.0" type="qcurve"/>
      <point x="885.0" y="806.0" type="line"/>
      <point x="843.0" y="711.0"/>
      <point x="710.0" y="542.0"/>
      <point x="615.0" y="532.0" type="qcurve"/>
      <point x="350.0" y="640.0" type="line"/>
      <point x="298.0" y="640.0"/>
      <point x="216.0" y="600.0"/>
      <point x="162.0" y="533.0" type="qcurve"/>
    </contour>
  </outline>
</glyph>
<glyph name="cent" format="2">
  <advance width="1089"/>
  <unicode hex="00A2"/>
  <outline>
    <contour>
      <point x="469.0" y="-96.0" type="line"/>
      <point x="535.0" y="182.0" type="line"/>
      <point x="547.0" y="187.0" type="line"/>
      <point x="625.0" y="540.0" type="line"/>
      <point x="659.0" y="498.0" type="line"/>
      <point x="591.0" y="187.0" type="line"/>
      <point x="599.0" y="182.0" type="line"/>
      <point x="534.0" y="-92.0" type="line"/>
    </contour>
    <contour>
      <point x="776.0" y="1249.0" type="line"/>
      <point x="844.0" y="1265.0" type="line"/>
      <point x="794.0" y="1054.0" type="line"/>
      <point x="784.0" y="1049.0" type="line"/>
      <point x="659.0" y="498.0" type="line"/>
      <point x="625.0" y="540.0" type="line"/>
      <point x="742.0" y="1049.0" type="line"/>
      <point x="732.0" y="1054.0" type="line"/>
    </contour>
    <contour>
      <point x="3.0" y="571.0" type="qcurve" smooth="yes"/>
      <point x="23.0" y="786.0"/>
      <point x="386.0" y="1097.0"/>
      <point x="756.0" y="1097.0" type="qcurve" smooth="yes"/>
      <point x="934.0" y="1097.0"/>
      <point x="1057.0" y="973.0"/>
      <point x="1059.0" y="886.0" type="qcurve" smooth="yes"/>
      <point x="1061.0" y="847.0"/>
      <point x="1005.0" y="755.0"/>
      <point x="916.0" y="700.0" type="qcurve" smooth="yes"/>
      <point x="859.0" y="692.0" type="line"/>
      <point x="859.0" y="954.0" type="line" smooth="yes"/>
      <point x="859.0" y="973.0"/>
      <point x="809.0" y="1011.0"/>
      <point x="754.0" y="1011.0" type="qcurve" smooth="yes"/>
      <point x="658.0" y="1011.0"/>
      <point x="510.0" y="774.0"/>
      <point x="493.0" y="577.0" type="qcurve" smooth="yes"/>
      <point x="476.0" y="397.0"/>
      <point x="550.0" y="250.0"/>
      <point x="644.0" y="245.0" type="qcurve" smooth="yes"/>
      <point x="725.0" y="241.0"/>
      <point x="882.0" y="315.0"/>
      <point x="948.0" y="402.0" type="qcurve"/>
      <point x="988.0" y="355.0" type="line"/>
      <point x="988.0" y="320.0" type="line"/>
      <point x="906.0" y="199.0"/>
      <point x="669.0" y="91.0"/>
      <point x="502.0" y="94.0" type="qcurve" smooth="yes"/>
      <point x="223.0" y="94.0"/>
      <point x="-17.0" y="356.0"/>
    </contour>
  </outline>
</glyph>
<glyph name="currency" format="2">
  <advance width="1206"/>
  <unicode hex="00A4"/>
  <outline>
    <contour>
      <point x="99.0" y="771.0" type="qcurve" smooth="yes"/>
      <point x="99.0" y="981.0"/>
      <point x="377.0" y="1277.0"/>
      <point x="601.0" y="1277.0" type="qcurve" smooth="yes"/>
      <point x="828.0" y="1277.0"/>
      <point x="1108.0" y="1001.0"/>
      <point x="1108.0" y="777.0" type="qcurve" smooth="yes"/>
      <point x="1108.0" y="567.0"/>
      <point x="833.0" y="264.0"/>
      <point x="607.0" y="264.0" type="qcurve" smooth="yes"/>
      <point x="382.0" y="264.0"/>
      <point x="99.0" y="545.0"/>
    </contour>
    <contour>
      <point x="278.0" y="787.0" type="qcurve" smooth="yes"/>
      <point x="279.0" y="637.0"/>
      <point x="453.0" y="430.0"/>
      <point x="599.0" y="430.0" type="qcurve" smooth="yes"/>
      <point x="754.0" y="430.0"/>
      <point x="921.0" y="617.0"/>
      <point x="921.0" y="774.0" type="qcurve" smooth="yes"/>
      <point x="921.0" y="916.0"/>
      <point x="746.0" y="1104.0"/>
      <point x="601.0" y="1104.0" type="qcurve" smooth="yes"/>
      <point x="444.0" y="1104.0"/>
      <point x="277.0" y="935.0"/>
    </contour>
    <contour>
      <point x="267.0" y="1083.0" type="line"/>
      <point x="-30.0" y="1356.0" type="line"/>
      <point x="38.0" y="1428.0" type="line"/>
      <point x="322.0" y="1141.0" type="line"/>
    </contour>
    <contour>
      <point x="960.0" y="1073.0" type="line"/>
      <point x="906.0" y="1132.0" type="line"/>
      <point x="1200.0" y="1438.0" type="line"/>
      <point x="1267.0" y="1365.0" type="line"/>
    </contour>
    <contour>
      <point x="269.0" y="452.0" type="line"/>
      <point x="324.0" y="394.0" type="line"/>
      <point x="30.0" y="89.0" type="line"/>
      <point x="-38.0" y="160.0" type="line"/>
    </contour>
    <contour>
      <point x="965.0" y="452.0" type="line"/>
      <point x="1281.0" y="150.0" type="line"/>
      <point x="1214.0" y="78.0" type="line"/>
      <point x="911.0" y="393.0" type="line"/>
    </contour>
  </outline>
</glyph>
<glyph name="dieresis" format="2">
  <advance width="896"/>
  <unicode hex="00A8"/>
  <outline>
    <contour>
      <point x="591.0" y="1204.0" type="qcurve" smooth="yes"/>
      <point x="591.0" y="1260.0"/>
      <point x="660.0" y="1326.0"/>
      <point x="717.0" y="1326.0" type="qcurve" smooth="yes"/>
      <point x="774.0" y="1326.0"/>
      <point x="843.0" y="1258.0"/>
      <point x="843.0" y="1204.0" type="qcurve" smooth="yes"/>
      <point x="843.0" y="1148.0"/>
      <point x="775.0" y="1081.0"/>
      <point x="717.0" y="1081.0" type="qcurve" smooth="yes"/>
      <point x="660.0" y="1081.0"/>
      <point x="591.0" y="1149.0"/>
    </contour>
    <contour>
      <point x="237.0" y="1204.0" type="qcurve" smooth="yes"/>
      <point x="237.0" y="1260.0"/>
      <point x="305.0" y="1326.0"/>
      <point x="363.0" y="1326.0" type="qcurve" smooth="yes"/>
      <point x="420.0" y="1326.0"/>
      <point x="489.0" y="1258.0"/>
      <point x="489.0" y="1204.0" type="qcurve" smooth="yes"/>
      <point x="489.0" y="1148.0"/>
      <point x="420.0" y="1081.0"/>
      <point x="363.0" y="1081.0" type="qcurve" smooth="yes"/>
      <point x="306.0" y="1081.0"/>
      <point x="237.0" y="1149.0"/>
    </contour>
  </outline>
</glyph>
<glyph name="AE" format="2">
  <advance width="2097"/>
  <unicode hex="00C6"/>
  <outline>
    <contour>
      <point x="453.0" y="561.0" type="line"/>
      <point x="503.0" y="639.0" type="line"/>
      <point x="728.0" y="635.0" type="line"/>
      <point x="708.0" y="559.0" type="line"/>
    </contour>
    <contour>
      <point x="728.0" y="635.0" type="line"/>
      <point x="989.0" y="643.0" type="line"/>
      <point x="976.0" y="559.0" type="line"/>
      <point x="708.0" y="559.0" type="line"/>
    </contour>
    <contour>
      <point x="748.0" y="0.0" type="line"/>
      <point x="757.0" y="55.0" type="line"/>
      <point x="862.0" y="68.0" type="line"/>
      <point x="1027.0" y="807.0" type="line"/>
      <point x="1150.0" y="1417.0" type="line"/>
      <point x="1024.0" y="1445.0" type="line"/>
      <point x="1033.0" y="1500.0" type="line"/>
      <point x="2164.0" y="1500.0" type="line"/>
      <point x="2086.0" y="1167.0" type="line"/>
      <point x="2001.0" y="1167.0" type="line"/>
      <point x="1943.0" y="1430.0" type="line"/>
      <point x="1688.0" y="1430.0" type="line"/>
      <point x="1656.0" y="1408.0" type="line"/>
      <point x="1523.0" y="784.0" type="line"/>
      <point x="1381.0" y="129.0" type="line"/>
      <point x="1423.0" y="78.0" type="line"/>
      <point x="1708.0" y="78.0" type="line"/>
      <point x="1932.0" y="373.0" type="line"/>
      <point x="2014.0" y="373.0" type="line"/>
      <point x="1895.0" y="0.0" type="line"/>
    </contour>
    <contour>
      <point x="1250.0" y="745.0" type="line"/>
      <point x="1263.0" y="815.0" type="line"/>
      <point x="1780.0" y="826.0" type="line"/>
      <point x="1893.0" y="971.0" type="line"/>
      <point x="1953.0" y="971.0" type="line"/>
      <point x="1866.0" y="562.0" type="line"/>
      <point x="1796.0" y="562.0" type="line"/>
      <point x="1753.0" y="752.0" type="line"/>
    </contour>
    <contour>
      <point x="1190.0" y="1427.0" type="line"/>
      <point x="539.0" y="646.0" type="line"/>
      <point x="53.0" y="68.0" type="line"/>
      <point x="244.0" y="54.0" type="line"/>
      <point x="236.0" y="0.0" type="line"/>
      <point x="-193.0" y="0.0" type="line"/>
      <point x="-181.0" y="54.0" type="line"/>
      <point x="-49.0" y="71.0" type="line"/>
      <point x="462.0" y="666.0" type="line"/>
      <point x="1137.0" y="1474.0" type="line"/>
    </contour>
  </outline>
</glyph>
<glyph name="thorn" format="2">
  <advance width="1419"/>
  <unicode hex="00FE"/>
  <outline>
    <contour>
      <point x="-135.0" y="-368.0" type="line"/>
      <point x="105.0" y="634.0" type="line"/>
      <point x="250.0" y="1403.0" type="line"/>
      <point x="86.0" y="1407.0" type="line"/>
      <point x="107.0" y="1488.0" type="line"/>
      <point x="694.0" y="1574.0" type="line"/>
      <point x="726.0" y="1510.0" type="line"/>
      <point x="568.0" y="784.0" type="line"/>
      <point x="665.0" y="875.0"/>
      <point x="904.0" y="997.0"/>
      <point x="1066.0" y="997.0" type="qcurve" smooth="yes"/>
      <point x="1193.0" y="997.0"/>
      <point x="1320.0" y="817.0"/>
      <point x="1320.0" y="724.0" type="qcurve" smooth="yes"/>
      <point x="1320.0" y="404.0"/>
      <point x="945.0" y="42.0"/>
      <point x="590.0" y="42.0" type="qcurve" smooth="yes"/>
      <point x="532.0" y="42.0"/>
      <point x="449.0" y="59.0"/>
      <point x="424.0" y="74.0" type="qcurve"/>
      <point x="335.0" y="-334.0" type="line"/>
      <point x="509.0" y="-332.0" type="line"/>
      <point x="505.0" y="-381.0" type="line"/>
      <point x="-91.0" y="-418.0" type="line"/>
    </contour>
    <contour>
      <point x="431.0" y="96.0" type="line"/>
      <point x="452.0" y="88.0"/>
      <point x="495.0" y="74.0"/>
      <point x="531.0" y="74.0" type="qcurve" smooth="yes"/>
      <point x="644.0" y="74.0"/>
      <point x="849.0" y="479.0"/>
      <point x="849.0" y="675.0" type="qcurve" smooth="yes"/>
      <point x="849.0" y="740.0"/>
      <point x="804.0" y="830.0"/>
      <point x="752.0" y="830.0" type="qcurve" smooth="yes"/>
      <point x="704.0" y="830.0"/>
      <point x="596.0" y="755.0"/>
      <point x="546.0" y="702.0" type="qcurve"/>
      <point x="513.0" y="543.0" type="line"/>
    </contour>
  </outline>
</glyph>
<glyph name="apostrophemod" format="2">
  <advance width="617"/>
  <unicode hex="02BC"/>
  <outline>
    <contour>
      <point x="227.0" y="915.0" type="line"/>
      <point x="332.0" y="977.0"/>
      <point x="446.0" y="1071.0"/>
      <point x="477.0" y="1128.0" type="qcurve"/>
      <point x="362.0" y="1126.0"/>
      <point x="236.0" y="1232.0"/>
      <point x="236.0" y="1324.0" type="qcurve" smooth="yes"/>
      <point x="236.0" y="1400.0"/>
      <point x="350.0" y="1515.0"/>
      <point x="437.0" y="1515.0" type="qcurve" smooth="yes"/>
      <point x="527.0" y="1515.0"/>
      <point x="649.0" y="1409.0"/>
      <point x="649.0" y="1287.0" type="qcurve" smooth="yes"/>
      <point x="649.0" y="1149.0"/>
      <point x="442.0" y="944.0"/>
      <point x="259.0" y="869.0" type="qcurve"/>
    </contour>
  </outline>
</glyph>
<glyph name="guilsinglleft" format="2">
  <advance width="836"/>
  <unicode hex="2039"/>
  <outline>
    <contour>
      <point x="70.0" y="614.0" type="line"/>
      <point x="70.0" y="614.0"/>
      <point x="651.0" y="958.0"/>
      <point x="728.0" y="1002.0" type="qcurve" smooth="yes"/>
      <point x="795.0" y="1039.0"/>
      <point x="819.0" y="941.0"/>
      <point x="755.0" y="893.0" type="qcurve" smooth="yes"/>
      <point x="648.0" y="812.0"/>
      <point x="399.0" y="617.0"/>
      <point x="357.0" y="586.0" type="qcurve"/>
      <point x="398.0" y="556.0"/>
      <point x="645.0" y="346.0"/>
      <point x="679.0" y="300.0" type="qcurve" smooth="yes"/>
      <point x="712.0" y="248.0"/>
      <point x="660.0" y="173.0"/>
      <point x="615.0" y="190.0" type="qcurve" smooth="yes"/>
      <point x="557.0" y="221.0"/>
      <point x="124.0" y="506.0"/>
      <point x="58.0" y="554.0" type="qcurve"/>
    </contour>
  </outline>
</glyph>
<glyph name="peseta" format="2">
  <advance width="3130"/>
  <unicode hex="20A7"/>
  <outline>
    <contour>
      <point x="-36.0" y="0.0" type="line"/>
      <point x="-17.0" y="55.0" type="line"/>
      <point x="91.0" y="85.0" type="line"/>
      <point x="252.0" y="806.0" type="line"/>
      <point x="383.0" y="1409.0" type="line"/>
      <point x="238.0" y="1442.0" type="line"/>
      <point x="247.0" y="1500.0" type="line"/>
      <point x="1106.0" y="1500.0" type="line" smooth="yes"/>
      <point x="1306.0" y="1500.0"/>
      <point x="1548.0" y="1300.0"/>
      <point x="1524.0" y="1085.0" type="qcurve" smooth="yes"/>
      <point x="1501.0" y="874.0"/>
      <point x="1220.0" y="586.0"/>
      <point x="871.0" y="586.0" type="qcurve" smooth="yes"/>
      <point x="810.0" y="586.0"/>
      <point x="633.0" y="602.0"/>
      <point x="598.0" y="613.0" type="qcurve"/>
      <point x="614.0" y="687.0" type="line"/>
      <point x="665.0" y="670.0"/>
      <point x="739.0" y="660.0"/>
      <point x="763.0" y="660.0" type="qcurve" smooth="yes"/>
      <point x="906.0" y="660.0"/>
      <point x="1049.0" y="869.0"/>
      <point x="1083.0" y="1063.0" type="qcurve" smooth="yes"/>
      <point x="1113.0" y="1241.0"/>
      <point x="1023.0" y="1432.0"/>
      <point x="884.0" y="1432.0" type="qcurve" smooth="yes"/>
      <point x="879.0" y="1432.0" type="line"/>
      <point x="846.0" y="1408.0" type="line"/>
      <point x="703.0" y="764.0" type="line"/>
      <point x="560.0" y="85.0" type="line"/>
      <point x="717.0" y="55.0" type="line"/>
      <point x="696.0" y="0.0" type="line"/>
    </contour>
    <contour>
      <point x="1388.0" y="-13.0" type="line"/>
      <point x="1372.0" y="49.0" type="line"/>
      <point x="1497.0" y="656.0" type="line"/>
      <point x="1515.0" y="844.0" type="line"/>
      <point x="1376.0" y="807.0" type="line"/>
      <point x="1376.0" y="895.0" type="line"/>
      <point x="1613.0" y="928.0"/>
      <point x="1811.0" y="1152.0"/>
      <point x="1829.0" y="1226.0" type="qcurve"/>
      <point x="1963.0" y="1235.0" type="line"/>
      <point x="2002.0" y="1193.0" type="line"/>
      <point x="1882.0" y="443.0" type="line"/>
      <point x="1831.0" y="160.0" type="line"/>
      <point x="2038.0" y="164.0" type="line"/>
      <point x="2033.0" y="101.0" type="line"/>
    </contour>
    <contour>
      <point x="1890.0" y="844.0" type="line"/>
      <point x="1896.0" y="917.0" type="line"/>
      <point x="2198.0" y="923.0" type="line"/>
      <point x="2182.0" y="854.0" type="line"/>
    </contour>
    <contour>
      <point x="1999.0" y="164.0" type="qcurve" smooth="yes"/>
      <point x="1995.0" y="221.0"/>
      <point x="2082.0" y="293.0"/>
      <point x="2171.0" y="293.0" type="qcurve" smooth="yes"/>
      <point x="2193.0" y="293.0" type="line"/>
      <point x="2203.0" y="227.0" type="line" smooth="yes"/>
      <point x="2206.0" y="133.0"/>
      <point x="2336.0" y="45.0"/>
      <point x="2436.0" y="45.0" type="qcurve" smooth="yes"/>
      <point x="2537.0" y="45.0"/>
      <point x="2648.0" y="121.0"/>
      <point x="2647.0" y="161.0" type="qcurve" smooth="yes"/>
      <point x="2647.0" y="207.0"/>
      <point x="2549.0" y="257.0"/>
      <point x="2394.0" y="337.0" type="qcurve" smooth="yes"/>
      <point x="2229.0" y="426.0"/>
      <point x="2125.0" y="589.0"/>
      <point x="2126.0" y="703.0" type="qcurve" smooth="yes"/>
      <point x="2127.0" y="841.0"/>
      <point x="2355.0" y="1002.0"/>
      <point x="2612.0" y="1002.0" type="qcurve" smooth="yes"/>
      <point x="2801.0" y="1002.0"/>
      <point x="3002.0" y="894.0"/>
      <point x="3006.0" y="829.0" type="qcurve" smooth="yes"/>
      <point x="3009.0" y="777.0"/>
      <point x="2895.0" y="734.0"/>
      <point x="2839.0" y="734.0" type="qcurve" smooth="yes"/>
      <point x="2814.0" y="749.0" type="line"/>
      <point x="2806.0" y="818.0" type="line" smooth="yes"/>
      <point x="2805.0" y="859.0"/>
      <point x="2693.0" y="934.0"/>
      <point x="2603.0" y="934.0" type="qcurve" smooth="yes"/>
      <point x="2519.0" y="934.0"/>
      <point x="2428.0" y="873.0"/>
      <point x="2430.0" y="822.0" type="qcurve" smooth="yes"/>
      <point x="2433.0" y="795.0"/>
      <point x="2527.0" y="750.0"/>
      <point x="2665.0" y="673.0" type="qcurve" smooth="yes"/>
      <point x="2823.0" y="589.0"/>
      <point x="2926.0" y="472.0"/>
      <point x="2926.0" y="382.0" type="qcurve" smooth="yes"/>
      <point x="2926.0" y="188.0"/>
      <point x="2647.0" y="-16.0"/>
      <point x="2415.0" y="-16.0" type="qcurve" smooth="yes"/>
      <point x="2208.0" y="-16.0"/>
      <point x="2004.0" y="63.0"/>
    </contour>
  </outline>
</glyph>
<glyph name="ruble" format="2">
  <advance width="1455"/>
  <unicode hex="20BD"/>
  <outline>
    <contour>
      <point x="-34.0" y="375.0" type="line"/>
      <point x="-18.0" y="453.0" type="line"/>
      <point x="926.0" y="453.0" type="line"/>
      <point x="906.0" y="375.0" type="line"/>
    </contour>
    <contour>
      <point x="-92.0" y="0.0" type="line"/>
      <point x="-63.0" y="55.0" type="line"/>
      <point x="35.0" y="85.0" type="line"/>
      <point x="195.0" y="806.0" type="line"/>
      <point x="327.0" y="1409.0" type="line"/>
      <point x="202.0" y="1442.0" type="line"/>
      <point x="211.0" y="1500.0" type="line"/>
      <point x="1016.0" y="1500.0" type="line" smooth="yes"/>
      <point x="1226.0" y="1500.0"/>
      <point x="1495.0" y="1335.0"/>
      <point x="1475.0" y="1111.0" type="qcurve" smooth="yes"/>
      <point x="1455.0" y="886.0"/>
      <point x="1131.0" y="599.0"/>
      <point x="752.0" y="599.0" type="qcurve" smooth="yes"/>
      <point x="461.0" y="599.0"/>
      <point x="178.0" y="644.0"/>
      <point x="55.0" y="687.0" type="qcurve"/>
      <point x="67.0" y="763.0" type="line"/>
      <point x="202.0" y="721.0"/>
      <point x="490.0" y="690.0"/>
      <point x="714.0" y="690.0" type="qcurve" smooth="yes"/>
      <point x="837.0" y="690.0"/>
      <point x="998.0" y="856.0"/>
      <point x="1032.0" y="1089.0" type="qcurve" smooth="yes"/>
      <point x="1056.0" y="1271.0"/>
      <point x="933.0" y="1432.0"/>
      <point x="794.0" y="1432.0" type="qcurve" smooth="yes"/>
      <point x="826.0" y="1432.0" type="line"/>
      <point x="793.0" y="1408.0" type="line"/>
      <point x="649.0" y="764.0" type="line"/>
      <point x="507.0" y="85.0" type="line"/>
      <point x="667.0" y="55.0" type="line"/>
      <point x="646.0" y="0.0" type="line"/>
    </contour>
  </outline>
</glyph>
<glyph name="trademark" format="2">
  <advance width="1617"/>
  <unicode hex="2122"/>
  <outline>
    <contour>
      <point x="221.0" y="1265.0" type="line"/>
      <point x="277.0" y="1500.0" type="line"/>
      <point x="793.0" y="1500.0" type="line"/>
      <point x="737.0" y="1265.0" type="line"/>
      <point x="684.0" y="1265.0" type="line"/>
      <point x="681.0" y="1450.0" type="line"/>
      <point x="624.0" y="1450.0" type="line"/>
      <point x="607.0" y="1433.0" type="line"/>
      <point x="541.0" y="1173.0" type="line"/>
      <point x="485.0" y="963.0" type="line"/>
      <point x="563.0" y="938.0" type="line"/>
      <point x="551.0" y="886.0" type="line"/>
      <point x="216.0" y="886.0" type="line"/>
      <point x="228.0" y="938.0" type="line"/>
      <point x="333.0" y="963.0" type="line"/>
      <point x="376.0" y="1160.0" type="line"/>
      <point x="431.0" y="1433.0" type="line"/>
      <point x="429.0" y="1450.0" type="line"/>
      <point x="363.0" y="1450.0" type="line"/>
      <point x="274.0" y="1265.0" type="line"/>
    </contour>
    <contour>
      <point x="656.0" y="887.0" type="line"/>
      <point x="667.0" y="937.0" type="line"/>
      <point x="772.0" y="961.0" type="line"/>
      <point x="823.0" y="1172.0" type="line"/>
      <point x="883.0" y="1427.0" type="line"/>
      <point x="800.0" y="1456.0" type="line"/>
      <point x="811.0" y="1500.0" type="line"/>
      <point x="1088.0" y="1500.0" type="line"/>
      <point x="1131.0" y="1071.0" type="line"/>
      <point x="1396.0" y="1500.0" type="line"/>
      <point x="1659.0" y="1500.0" type="line"/>
      <point x="1648.0" y="1456.0" type="line"/>
      <point x="1551.0" y="1427.0" type="line"/>
      <point x="1497.0" y="1211.0" type="line"/>
      <point x="1440.0" y="959.0" type="line"/>
      <point x="1523.0" y="935.0" type="line"/>
      <point x="1513.0" y="886.0" type="line"/>
      <point x="1195.0" y="886.0" type="line"/>
      <point x="1205.0" y="935.0" type="line"/>
      <point x="1294.0" y="959.0" type="line"/>
      <point x="1353.0" y="1211.0" type="line"/>
      <point x="1406.0" y="1431.0" type="line"/>
      <point x="1088.0" y="879.0" type="line"/>
      <point x="998.0" y="879.0" type="line"/>
      <point x="934.0" y="1411.0" type="line"/>
      <point x="876.0" y="1172.0" type="line"/>
      <point x="827.0" y="961.0" type="line"/>
      <point x="911.0" y="937.0" type="line"/>
      <point x="900.0" y="887.0" type="line"/>
    </contour>
  </outline>
</glyph>
<glyph name="rightanglebracket" format="2">
  <advance width="1164"/>
  <unicode hex="27E9"/>
  <outline>
    <contour>
      <point x="-11.0" y="-155.0" type="line"/>
      <point x="-90.0" y="56.0" type="line"/>
      <point x="692.0" y="693.0" type="line"/>
      <point x="186.0" y="1335.0" type="line"/>
      <point x="313.0" y="1508.0" type="line"/>
      <point x="1064.0" y="735.0" type="line"/>
      <point x="1064.0" y="650.0" type="line"/>
    </contour>
  </outline>
</glyph>
<glyph name="caroncomb.alt" format="2">
  <advance width="896"/>
  <outline>
    <contour>
      <point x="254.0" y="950.0" type="line"/>
      <point x="319.0" y="1331.0" type="line" smooth="yes"/>
      <point x="337.0" y="1423.0"/>
      <point x="387.0" y="1478.0"/>
      <point x="447.0" y="1478.0" type="qcurve" smooth="yes"/>
      <point x="499.0" y="1478.0"/>
      <point x="560.0" y="1425.0"/>
      <point x="560.0" y="1390.0" type="qcurve" smooth="yes"/>
      <point x="560.0" y="1356.0"/>
      <point x="540.0" y="1301.0"/>
      <point x="511.0" y="1256.0" type="qcurve" smooth="yes"/>
      <point x="312.0" y="941.0" type="line"/>
    </contour>
  </outline>
</glyph>
<glyph name="dieresisbelowcomb" format="2">
  <advance width="896"/>
  <outline>
    <contour>
      <point x="346.0" y="-287.0" type="qcurve" smooth="yes"/>
      <point x="346.0" y="-227.0"/>
      <point x="421.0" y="-155.0"/>
      <point x="482.0" y="-155.0" type="qcurve" smooth="yes"/>
      <point x="543.0" y="-155.0"/>
      <point x="618.0" y="-229.0"/>
      <point x="618.0" y="-287.0" type="qcurve" smooth="yes"/>
      <point x="618.0" y="-347.0"/>
      <point x="544.0" y="-420.0"/>
      <point x="482.0" y="-420.0" type="qcurve" smooth="yes"/>
      <point x="421.0" y="-420.0"/>
      <point x="346.0" y="-346.0"/>
    </contour>
    <contour>
      <point x="-42.0" y="-287.0" type="qcurve" smooth="yes"/>
      <point x="-42.0" y="-227.0"/>
      <point x="32.0" y="-155.0"/>
      <point x="94.0" y="-155.0" type="qcurve" smooth="yes"/>
      <point x="155.0" y="-155.0"/>
      <point x="230.0" y="-229.0"/>
      <point x="230.0" y="-287.0" type="qcurve" smooth="yes"/>
      <point x="230.0" y="-347.0"/>
      <point x="155.0" y="-420.0"/>
      <point x="94.0" y="-420.0" type="qcurve" smooth="yes"/>
      <point x="33.0" y="-420.0"/>
      <point x="-42.0" y="-346.0"/>
    </contour>
  </outline>
</glyph>
<glyph name="eight.lc" format="2">
  <advance width="1336"/>
  <outline>
    <contour>
      <point x="13.0" y="292.0" type="qcurve" smooth="yes"/>
      <point x="17.0" y="444.0"/>
      <point x="330.0" y="649.0"/>
      <point x="635.0" y="729.0" type="qcurve"/>
      <point x="690.0" y="697.0" type="line"/>
      <point x="529.0" y="634.0"/>
      <point x="305.0" y="417.0"/>
      <point x="301.0" y="292.0" type="qcurve" smooth="yes"/>
      <point x="299.0" y="177.0"/>
      <point x="433.0" y="45.0"/>
      <point x="567.0" y="45.0" type="qcurve" smooth="yes"/>
      <point x="712.0" y="45.0"/>
      <point x="876.0" y="208.0"/>
      <point x="876.0" y="312.0" type="qcurve" smooth="yes"/>
      <point x="876.0" y="428.0"/>
      <point x="615.0" y="587.0"/>
      <point x="558.0" y="627.0" type="qcurve" smooth="yes"/>
      <point x="418.0" y="717.0"/>
      <point x="276.0" y="908.0"/>
      <point x="280.0" y="1013.0" type="qcurve" smooth="yes"/>
      <point x="284.0" y="1173.0"/>
      <point x="590.0" y="1381.0"/>
      <point x="880.0" y="1378.0" type="qcurve" smooth="yes"/>
      <point x="1109.0" y="1376.0"/>
      <point x="1299.0" y="1204.0"/>
      <point x="1286.0" y="1093.0" type="qcurve" smooth="yes"/>
      <point x="1273.0" y="974.0"/>
      <point x="1034.0" y="838.0"/>
      <point x="776.0" y="753.0" type="qcurve"/>
      <point x="716.0" y="789.0" type="line"/>
      <point x="855.0" y="849.0"/>
      <point x="1009.0" y="991.0"/>
      <point x="1014.0" y="1105.0" type="qcurve" smooth="yes"/>
      <point x="1018.0" y="1196.0"/>
      <point x="931.0" y="1296.0"/>
      <point x="854.0" y="1298.0" type="qcurve" smooth="yes"/>
      <point x="741.0" y="1301.0"/>
      <point x="606.0" y="1180.0"/>
      <point x="604.0" y="1084.0" type="qcurve" smooth="yes"/>
      <point x="602.0" y="994.0"/>
      <point x="805.0" y="872.0"/>
      <point x="905.0" y="800.0" type="qcurve" smooth="yes"/>
      <point x="1050.0" y="703.0"/>
      <point x="1226.0" y="500.0"/>
      <point x="1222.0" y="373.0" type="qcurve" smooth="yes"/>
      <point x="1217.0" y="219.0"/>
      <point x="861.0" y="-29.0"/>
      <point x="516.0" y="-29.0" type="qcurve" smooth="yes"/>
      <point x="262.0" y="-29.0"/>
      <point x="9.0" y="149.0"/>
    </contour>
  </outline>
</glyph>
<glyph name="four.lf" format="2">
  <advance width="1287"/>
  <outline>
    <contour>
      <point x="14.0" y="405.0" type="line"/>
      <point x="-5.0" y="500.0" type="line"/>
      <point x="994.0" y="1528.0" type="line"/>
      <point x="1176.0" y="1453.0" type="line"/>
      <point x="1184.0" y="1403.0" type="line"/>
      <point x="1039.0" y="513.0" type="line"/>
      <point x="1034.0" y="486.0" type="line"/>
      <point x="991.0" y="176.0" type="line"/>
      <point x="991.0" y="43.0" type="line"/>
      <point x="561.0" y="-15.0" type="line"/>
      <point x="541.0" y="14.0" type="line"/>
      <point x="628.0" y="488.0" type="line"/>
      <point x="636.0" y="513.0" type="line"/>
      <point x="733.0" y="1098.0" type="line"/>
      <point x="187.0" y="577.0" type="line"/>
      <point x="191.0" y="567.0" type="line"/>
      <point x="861.0" y="560.0" type="line"/>
      <point x="1256.0" y="560.0" type="line"/>
      <point x="1224.0" y="404.0" type="line"/>
      <point x="850.0" y="398.0" type="line"/>
    </contour>
  </outline>
</glyph>
<glyph name="ogonekcomb.case" format="2">
  <advance width="896"/>
  <outline>
    <contour>
      <point x="327.0" y="-204.0" type="qcurve" smooth="yes"/>
      <point x="327.0" y="-260.0"/>
      <point x="412.0" y="-330.0"/>
      <point x="471.0" y="-330.0" type="qcurve" smooth="yes"/>
      <point x="546.0" y="-330.0"/>
      <point x="607.0" y="-301.0"/>
      <point x="668.0" y="-246.0" type="qcurve"/>
      <point x="696.0" y="-252.0" type="line"/>
      <point x="663.0" y="-310.0"/>
      <point x="496.0" y="-427.0"/>
      <point x="395.0" y="-427.0" type="qcurve" smooth="yes"/>
      <point x="284.0" y="-428.0"/>
      <point x="142.0" y="-351.0"/>
      <point x="154.0" y="-261.0" type="qcurve" smooth="yes"/>
      <point x="168.0" y="-134.0"/>
      <point x="309.0" y="-13.0"/>
      <point x="416.0" y="48.0" type="qcurve" smooth="yes"/>
      <point x="418.0" y="46.0" type="line"/>
      <point x="436.0" y="19.0" type="line"/>
      <point x="450.0" y="28.0" type="line" smooth="yes"/>
      <point x="354.0" y="-63.0"/>
      <point x="328.0" y="-153.0"/>
    </contour>
  </outline>
</glyph>
<glyph name="three.lc" format="2">
  <advance width="1098"/>
  <outline>
    <contour>
      <point x="-179.0" y="-286.0" type="line"/>
      <point x="-141.0" y="-297.0"/>
      <point x="-1.0" y="-308.0"/>
      <point x="68.0" y="-308.0" type="qcurve" smooth="yes"/>
      <point x="298.0" y="-308.0"/>
      <point x="545.0" y="-115.0"/>
      <point x="557.0" y="35.0" type="qcurve" smooth="yes"/>
      <point x="566.0" y="147.0"/>
      <point x="452.0" y="298.0"/>
      <point x="289.0" y="305.0" type="qcurve" smooth="yes"/>
      <point x="185.0" y="310.0" type="line"/>
      <point x="199.0" y="389.0" type="line"/>
      <point x="278.0" y="392.0" type="line" smooth="yes"/>
      <point x="461.0" y="399.0"/>
      <point x="635.0" y="541.0"/>
      <point x="644.0" y="653.0" type="qcurve" smooth="yes"/>
      <point x="649.0" y="732.0"/>
      <point x="554.0" y="815.0"/>
      <point x="447.0" y="815.0" type="qcurve" smooth="yes"/>
      <point x="362.0" y="815.0"/>
      <point x="167.0" y="759.0"/>
      <point x="98.0" y="706.0" type="qcurve"/>
      <point x="68.0" y="798.0" type="line"/>
      <point x="149.0" y="877.0"/>
      <point x="424.0" y="987.0"/>
      <point x="612.0" y="986.0" type="qcurve" smooth="yes"/>
      <point x="839.0" y="985.0"/>
      <point x="1053.0" y="836.0"/>
      <point x="1044.0" y="711.0" type="qcurve" smooth="yes"/>
      <point x="1034.0" y="564.0"/>
      <point x="789.0" y="388.0"/>
      <point x="634.0" y="364.0" type="qcurve"/>
      <point x="633.0" y="358.0" type="line"/>
      <point x="778.0" y="345.0"/>
      <point x="968.0" y="197.0"/>
      <point x="957.0" y="58.0" type="qcurve" smooth="yes"/>
      <point x="942.0" y="-158.0"/>
      <point x="478.0" y="-417.0"/>
      <point x="87.0" y="-417.0" type="qcurve" smooth="yes"/>
      <point x="-1.0" y="-417.0"/>
      <point x="-186.0" y="-393.0"/>
      <point x="-231.0" y="-370.0" type="qcurve"/>
    </contour>
  </outline>
</glyph>
